<?xml version="1.0" encoding="utf-8"?>
<!-- Generator: Adobe Illustrator 23.0.0, SVG Export Plug-In . SVG Version: 6.00 Build 0)  -->
<svg version="1.1" id="OBJECTS" xmlns="http://www.w3.org/2000/svg" xmlns:xlink="http://www.w3.org/1999/xlink" x="0px" y="0px"
	 viewBox="0 0 417.74 316.54" style="enable-background:new 0 0 417.74 316.54;" xml:space="preserve">
<style type="text/css">
	.st0{opacity:0.24;fill:#D6D6FB;}
	.st1{fill:url(#SVGID_1_);}
	.st2{opacity:0.57;fill:none;stroke:#6442CE;stroke-width:1.2385;stroke-miterlimit:10;}
	.st3{fill:url(#SVGID_2_);}
	.st4{fill:url(#SVGID_3_);}
	.st5{fill:url(#SVGID_4_);}
	.st6{fill:url(#SVGID_5_);}
	.st7{fill:url(#SVGID_6_);}
	.st8{fill:url(#SVGID_7_);}
	.st9{fill:url(#SVGID_8_);}
	.st10{opacity:0.63;}
	.st11{fill:none;stroke:#EA8BEF;stroke-width:1.0321;stroke-linecap:round;stroke-miterlimit:10;}
	.st12{fill:url(#SVGID_9_);}
	.st13{fill:url(#SVGID_10_);}
	.st14{fill:url(#SVGID_11_);}
	.st15{fill:url(#SVGID_12_);}
	.st16{fill:url(#SVGID_13_);}
	.st17{fill:url(#SVGID_14_);}
	.st18{fill:url(#SVGID_15_);}
	.st19{fill:url(#SVGID_16_);}
	.st20{fill:url(#SVGID_17_);}
	.st21{fill:#FFFFFF;}
	.st22{fill:#6545BA;}
	.st23{opacity:0.57;fill:#E3DCE5;}
	.st24{opacity:0.65;fill:#CAC2CE;}
	.st25{fill:#E83867;}
	.st26{fill:#A15EDD;}
	.st27{opacity:0.61;fill:#E3DCE5;}
	.st28{opacity:0.57;fill:#CAC2CE;}
	.st29{fill:#5640A8;}
	.st30{fill:url(#SVGID_18_);}
	.st31{fill:#ED4C76;}
	.st32{fill:url(#SVGID_19_);stroke:#04006A;stroke-width:0.4128;stroke-miterlimit:10;}
	.st33{fill:#4F349B;}
	.st34{fill:url(#SVGID_20_);}
	.st35{fill:url(#SVGID_21_);}
	.st36{fill:url(#SVGID_22_);}
	.st37{fill:url(#SVGID_23_);}
	.st38{fill:#CED5E0;stroke:#04006A;stroke-width:0.4128;stroke-miterlimit:10;}
	.st39{fill:#BA2744;}
	.st40{fill:url(#SVGID_24_);}
	.st41{fill:url(#SVGID_25_);}
	.st42{fill:url(#SVGID_26_);}
	.st43{fill:url(#SVGID_27_);}
	.st44{fill:url(#SVGID_28_);}
	.st45{fill:none;stroke:#04006A;stroke-width:0.4128;stroke-miterlimit:10;}
	.st46{fill:url(#SVGID_29_);}
	.st47{fill:url(#SVGID_30_);}
	.st48{fill:#EBEFF7;}
	.st49{fill:url(#SVGID_31_);}
	.st50{fill:url(#SVGID_32_);}
	.st51{fill:#D8DDE5;}
	.st52{fill:#6149B7;}
	.st53{fill:#F0668F;}
	.st54{fill:url(#SVGID_33_);}
	.st55{fill:#F2F2F7;}
	.st56{fill:url(#SVGID_34_);}
	.st57{fill:url(#SVGID_35_);}
	.st58{fill:#7938E0;}
	.st59{fill:#5F3BB7;}
	.st60{fill:url(#SVGID_36_);}
	.st61{fill:url(#SVGID_37_);}
	.st62{fill:url(#SVGID_38_);}
	.st63{fill:url(#SVGID_39_);}
	.st64{fill:url(#SVGID_40_);}
	.st65{fill:url(#SVGID_41_);}
	.st66{fill:url(#SVGID_42_);}
	.st67{fill:none;}
	.st68{fill:url(#SVGID_43_);}
	.st69{fill:url(#SVGID_44_);}
	.st70{fill:#F28941;}
	.st71{fill:url(#SVGID_45_);}
	.st72{fill:#F26893;}
	.st73{fill:url(#SVGID_46_);}
	.st74{fill:url(#SVGID_47_);}
	.st75{fill:url(#SVGID_48_);}
	.st76{fill:#A02240;}
	.st77{fill:url(#SVGID_49_);}
	.st78{fill:url(#SVGID_50_);}
	.st79{fill:url(#SVGID_51_);}
	.st80{fill:url(#SVGID_52_);}
	.st81{fill:url(#SVGID_53_);}
	.st82{fill:url(#SVGID_54_);}
	.st83{fill:url(#SVGID_55_);}
	.st84{fill:url(#SVGID_56_);}
	.st85{fill:url(#SVGID_57_);}
	.st86{fill:url(#SVGID_58_);}
	.st87{opacity:0.66;fill:#FB4567;}
	.st88{fill:#FB4567;}
	.st89{fill:#804ECE;}
</style>
<g>
	<g>
		<path class="st0" d="M56.1,281.21c-11.57,0.66-33.04,4.29-32.11,14.24c0.93,9.95,13.83,7.05,26.14,2.82
			c12.31-4.23,27.96,5.18,30.28-1.4C82.75,290.28,72.1,280.29,56.1,281.21z"/>
		<path class="st0" d="M108.63,292.18c0,0-7.64,2.06,0.41,7.84c8.05,5.78,16.72-7.84,26.01-5.57c9.29,2.27,24.98,3.51,20.64-8.46
			C151.36,274.02,115.86,284.96,108.63,292.18z"/>
		<path class="st0" d="M368.43,284.64c-5.28-3.4-29.1,3.3-28.69,10.73c0.41,7.43,18.99,1.65,24.98,8.67
			C370.7,311.06,404.96,308.17,368.43,284.64z"/>
		<path class="st0" d="M166.1,281.55c0,0-24.32,24.15-18.75,31.58c5.57,7.43,99.7-10.73,118.07,0c18.37,10.73,41.49-4.95,19.2-31.79
			C262.32,254.51,166.1,281.55,166.1,281.55z"/>
		<path class="st0" d="M146.84,217.16C122.06,235,80.78,259.11,37.29,204.04C-3.73,152.1,28.8,37.56,101.48,17.12
			c71.05-19.98,122.18,84.1,148.48,49.69c26.3-34.42,56.95-92.06,106.65-54.63c49.7,37.43,106.03,184.77,4.56,235.32
			C289.43,283.23,289.26,114.6,146.84,217.16z"/>
	</g>
	<g>
		<g>
			<g>
				<linearGradient id="SVGID_1_" gradientUnits="userSpaceOnUse" x1="98.731" y1="154.0623" x2="169.7644" y2="154.0623">
					<stop  offset="0" style="stop-color:#8151CC"/>
					<stop  offset="1" style="stop-color:#FB4567"/>
				</linearGradient>
				<path class="st1" d="M168.59,159.5l-1.34,28.74c0,0-5.38-28.24-16.81-28.74c-11.43-0.5-13.95-10.25-12.44-18.49
					c1.51-8.24-0.34-17.99-12.78-22.69c-12.44-4.71-11.09-14.29-18.15-14.29s-15.3,16.81,1.68,28.41
					c16.98,11.6,2.52,31.6,22.19,40.68c19.67,9.08,0.5,32.11,38.83,30.93L168.59,159.5z"/>
				<path class="st2" d="M106.73,114.62c0,0,2.69,7.23,12.61,12.78c9.92,5.55,3.87,21.35,14.96,32.11
					c11.09,10.76,19.4,17.47,22.81,34.28"/>
			</g>
			<g>
				<linearGradient id="SVGID_2_" gradientUnits="userSpaceOnUse" x1="135.2034" y1="143.7192" x2="187.803" y2="143.7192">
					<stop  offset="0" style="stop-color:#8151CC"/>
					<stop  offset="1" style="stop-color:#FB4567"/>
				</linearGradient>
				<path class="st3" d="M187.8,158.93l-10.72,26.71c0,0,4.2-28.44-6.43-32.67c-10.63-4.23-9.81-14.27-5.67-21.55
					c4.14-7.28,5.59-17.1-4.61-25.63c-10.2-8.53-5.78-17.14-12.45-19.46c-6.67-2.32-19.97,10.85-7.75,27.38
					c12.22,16.53-8.01,30.67,7.58,45.71s-10.08,30.49,26.51,41.97L187.8,158.93z"/>
				<path class="st2" d="M144.13,96.21c0,0,0.16,7.71,7.71,16.21c7.54,8.5-3.37,21.43,3.58,35.24
					c6.94,13.81,12.59,22.87,10.28,39.88"/>
			</g>
			<g>
				<linearGradient id="SVGID_3_" gradientUnits="userSpaceOnUse" x1="81.1183" y1="185.4715" x2="186.6855" y2="185.4715">
					<stop  offset="0" style="stop-color:#8151CC"/>
					<stop  offset="1" style="stop-color:#FB4567"/>
				</linearGradient>
				<path class="st4" d="M164.9,173.44l12.2,26.06c0,0-17.91-22.49-28.26-17.61c-10.35,4.88-17.12-2.58-19.62-10.57
					c-2.5-7.99-8.67-15.76-21.87-14.13c-13.2,1.63-16.47-7.48-22.72-4.19c-6.25,3.29-5.71,22,14.72,24.36
					c20.43,2.36,16.95,26.79,38.58,25.67s15.4,28.18,48.77,9.29L164.9,173.44z"/>
				<path class="st2" d="M89.26,162.52c0,0,5.75,5.14,17.11,5.43c11.36,0.29,13.36,17.09,28.19,21.45
					c14.83,4.35,25.31,6.42,36.15,19.72"/>
			</g>
			<g>
				<linearGradient id="SVGID_4_" gradientUnits="userSpaceOnUse" x1="86.6915" y1="220.3553" x2="192.2586" y2="220.3553">
					<stop  offset="0" style="stop-color:#8151CC"/>
					<stop  offset="1" style="stop-color:#FB4567"/>
				</linearGradient>
				<path class="st5" d="M170.47,208.32l12.2,26.06c0,0-17.91-22.49-28.26-17.61c-10.35,4.88-17.12-2.58-19.62-10.57
					c-2.5-7.99-8.67-15.76-21.87-14.13c-13.2,1.63-16.47-7.48-22.72-4.19c-6.25,3.29-5.71,22,14.72,24.36
					c20.43,2.36,16.95,26.79,38.58,25.67c21.63-1.13,15.4,28.18,48.77,9.29L170.47,208.32z"/>
				<path class="st2" d="M94.83,197.41c0,0,5.75,5.14,17.11,5.43c11.36,0.29,13.36,17.09,28.19,21.45
					c14.83,4.35,25.31,6.42,36.15,19.72"/>
			</g>
		</g>
		<g>
			
				<linearGradient id="SVGID_5_" gradientUnits="userSpaceOnUse" x1="6804.1108" y1="279.8772" x2="6842.2378" y2="279.8772" gradientTransform="matrix(-1 0 0 1 6969.293 0)">
				<stop  offset="0" style="stop-color:#9F42DD"/>
				<stop  offset="1" style="stop-color:#E774E0"/>
			</linearGradient>
			<path class="st6" d="M156.97,286.32c0,0-42.99-0.57-45.86-8.03C108.24,270.84,142.06,270.84,156.97,286.32z"/>
			
				<linearGradient id="SVGID_6_" gradientUnits="userSpaceOnUse" x1="6824.5503" y1="272.1335" x2="6855.9849" y2="262.9889" gradientTransform="matrix(-1 0 0 1 6969.293 0)">
				<stop  offset="0" style="stop-color:#9F42DD"/>
				<stop  offset="1" style="stop-color:#E774E0"/>
			</linearGradient>
			<path class="st7" d="M156.97,286.32c0,0-9.75-22.93-31.53-30.38s-21.78,12.61-2.87,14.9
				C141.49,273.13,156.97,286.32,156.97,286.32z"/>
			
				<linearGradient id="SVGID_7_" gradientUnits="userSpaceOnUse" x1="6814.2656" y1="267.005" x2="6848.6597" y2="236.3369" gradientTransform="matrix(-1 0 0 1 6969.293 0)">
				<stop  offset="0" style="stop-color:#9F42DD"/>
				<stop  offset="1" style="stop-color:#E774E0"/>
			</linearGradient>
			<path class="st8" d="M161.55,280.58c0,0-14.33-33.25-24.08-45.29s-17.2-16.62-22.93-13.18c-5.73,3.44-4.59,14.9,8.03,24.65
				c12.61,9.75,25.22,24.08,34.39,39.55L161.55,280.58z"/>
			<linearGradient id="SVGID_8_" gradientUnits="userSpaceOnUse" x1="153.4937" y1="245.0466" x2="142.6576" y2="208.2038">
				<stop  offset="0" style="stop-color:#9F42DD"/>
				<stop  offset="1" style="stop-color:#E774E0"/>
			</linearGradient>
			<path class="st9" d="M156.97,286.32c0,0-6.31-33.25-20.03-61.89c-12.88-26.88-3.56-40.69,6.64-33.8
				c12.19,8.24,19.34,44.01,17.59,90.92L156.97,286.32z"/>
			<g class="st10">
				<path class="st11" d="M118.85,278.01c0,0,16.05-0.31,34.11,6.73"/>
				<path class="st11" d="M117.13,259.66c0,0,22.15,3.7,37.16,25.07"/>
				<path class="st11" d="M118.85,231.57c0,0,22.93,12.04,37.83,51.02"/>
				<path class="st11" d="M139.48,198.9c8.32,20.36,15.23,42.38,20.92,70.22l-0.29,0.29"/>
			</g>
		</g>
		<g>
			<g>
				<linearGradient id="SVGID_9_" gradientUnits="userSpaceOnUse" x1="267.298" y1="154.0623" x2="338.3314" y2="154.0623">
					<stop  offset="0" style="stop-color:#8151CC"/>
					<stop  offset="1" style="stop-color:#FB4567"/>
				</linearGradient>
				<path class="st12" d="M268.47,159.5l1.34,28.74c0,0,5.38-28.24,16.81-28.74c11.43-0.5,13.95-10.25,12.44-18.49
					c-1.51-8.24,0.34-17.99,12.78-22.69c12.44-4.71,11.09-14.29,18.15-14.29s15.3,16.81-1.68,28.41
					c-16.98,11.6-2.52,31.6-22.19,40.68c-19.67,9.08-0.5,32.11-38.83,30.93L268.47,159.5z"/>
				<path class="st2" d="M330.33,114.62c0,0-2.69,7.23-12.61,12.78c-9.92,5.55-3.87,21.35-14.96,32.11s-19.4,17.47-22.81,34.28"/>
			</g>
			<g>
				<linearGradient id="SVGID_10_" gradientUnits="userSpaceOnUse" x1="249.2594" y1="143.7192" x2="301.859" y2="143.7192">
					<stop  offset="0" style="stop-color:#8151CC"/>
					<stop  offset="1" style="stop-color:#FB4567"/>
				</linearGradient>
				<path class="st13" d="M249.26,158.93l10.72,26.71c0,0-4.2-28.44,6.43-32.67c10.63-4.23,9.81-14.27,5.67-21.55
					c-4.14-7.28-5.59-17.1,4.61-25.63c10.2-8.53,5.78-17.14,12.45-19.46c6.67-2.32,19.97,10.85,7.75,27.38
					c-12.22,16.53,8.01,30.67-7.58,45.71c-15.59,15.04,10.08,30.49-26.51,41.97L249.26,158.93z"/>
				<path class="st2" d="M292.93,96.21c0,0-0.16,7.71-7.71,16.21c-7.54,8.5,3.37,21.43-3.58,35.24
					c-6.94,13.81-12.59,22.87-10.28,39.88"/>
			</g>
			<g>
				<linearGradient id="SVGID_11_" gradientUnits="userSpaceOnUse" x1="250.3769" y1="185.4715" x2="355.9441" y2="185.4715">
					<stop  offset="0" style="stop-color:#8151CC"/>
					<stop  offset="1" style="stop-color:#FB4567"/>
				</linearGradient>
				<path class="st14" d="M272.16,173.44l-12.2,26.06c0,0,17.91-22.49,28.26-17.61c10.35,4.88,17.12-2.58,19.62-10.57
					c2.5-7.99,8.67-15.76,21.87-14.13c13.2,1.63,16.47-7.48,22.72-4.19c6.25,3.29,5.71,22-14.72,24.36
					c-20.43,2.36-16.95,26.79-38.58,25.67c-21.63-1.13-15.4,28.18-48.77,9.29L272.16,173.44z"/>
				<path class="st2" d="M347.8,162.52c0,0-5.75,5.14-17.11,5.43c-11.36,0.29-13.36,17.09-28.19,21.45
					c-14.83,4.35-25.31,6.42-36.15,19.72"/>
			</g>
			<g>
				<linearGradient id="SVGID_12_" gradientUnits="userSpaceOnUse" x1="244.8037" y1="220.3553" x2="350.3709" y2="220.3553">
					<stop  offset="0" style="stop-color:#8151CC"/>
					<stop  offset="1" style="stop-color:#FB4567"/>
				</linearGradient>
				<path class="st15" d="M266.59,208.32l-12.2,26.06c0,0,17.91-22.49,28.26-17.61c10.35,4.88,17.12-2.58,19.62-10.57
					c2.5-7.99,8.67-15.76,21.87-14.13c13.2,1.63,16.47-7.48,22.72-4.19s5.71,22-14.72,24.36c-20.43,2.36-16.95,26.79-38.58,25.67
					c-21.63-1.13-15.4,28.18-48.77,9.29L266.59,208.32z"/>
				<path class="st2" d="M342.23,197.41c0,0-5.75,5.14-17.11,5.43c-11.36,0.29-13.36,17.09-28.19,21.45
					c-14.83,4.35-25.31,6.42-36.15,19.72"/>
			</g>
		</g>
		<linearGradient id="SVGID_13_" gradientUnits="userSpaceOnUse" x1="280.0947" y1="279.8772" x2="326.1251" y2="279.8772">
			<stop  offset="0" style="stop-color:#9F42DD"/>
			<stop  offset="1" style="stop-color:#FB4567"/>
		</linearGradient>
		<path class="st16" d="M280.09,286.32c0,0,42.99-0.57,45.86-8.03C328.82,270.84,295,270.84,280.09,286.32z"/>
		<linearGradient id="SVGID_14_" gradientUnits="userSpaceOnUse" x1="280.0947" y1="270.3011" x2="328.3373" y2="270.3011">
			<stop  offset="0" style="stop-color:#9F42DD"/>
			<stop  offset="1" style="stop-color:#FB4567"/>
		</linearGradient>
		<path class="st17" d="M280.09,286.32c0,0,9.75-22.93,31.53-30.38c21.78-7.45,21.78,12.61,2.87,14.9
			C295.57,273.13,280.09,286.32,280.09,286.32z"/>
		<linearGradient id="SVGID_15_" gradientUnits="userSpaceOnUse" x1="275.5088" y1="253.6603" x2="325.8199" y2="253.6603">
			<stop  offset="0" style="stop-color:#9F42DD"/>
			<stop  offset="1" style="stop-color:#FB4567"/>
		</linearGradient>
		<path class="st18" d="M275.51,280.58c0,0,14.33-33.25,24.08-45.29s17.2-16.62,22.93-13.18c5.73,3.44,4.59,14.9-8.03,24.65
			c-12.61,9.75-25.22,24.08-34.39,39.55L275.51,280.58z"/>
		<linearGradient id="SVGID_16_" gradientUnits="userSpaceOnUse" x1="275.6395" y1="237.5925" x2="306.4104" y2="237.5925">
			<stop  offset="0" style="stop-color:#9F42DD"/>
			<stop  offset="1" style="stop-color:#FB4567"/>
		</linearGradient>
		<path class="st19" d="M280.09,286.32c0,0,6.31-33.25,20.03-61.89c12.88-26.88,3.56-40.69-6.64-33.8
			c-12.19,8.24-19.34,44.01-17.59,90.92L280.09,286.32z"/>
		<g class="st10">
			<path class="st11" d="M318.22,278.01c0,0-16.05-0.31-34.11,6.73"/>
			<path class="st11" d="M319.93,259.66c0,0-22.15,3.7-37.16,25.07"/>
			<path class="st11" d="M318.22,231.57c0,0-22.93,12.04-37.83,51.02"/>
			<path class="st11" d="M297.58,198.9c-8.32,20.36-15.23,42.38-20.92,70.22l0.29,0.29"/>
		</g>
	</g>
	<g>
		<linearGradient id="SVGID_17_" gradientUnits="userSpaceOnUse" x1="148.3508" y1="156.6231" x2="288.7116" y2="156.6231">
			<stop  offset="0" style="stop-color:#6656CC"/>
			<stop  offset="1" style="stop-color:#7472D6"/>
		</linearGradient>
		<path class="st20" d="M273.13,288.38H163.93c-8.57,0-15.58-7.01-15.58-15.58V40.45c0-8.57,7.01-15.58,15.58-15.58h109.21
			c8.57,0,15.58,7.01,15.58,15.58V272.8C288.71,281.37,281.7,288.38,273.13,288.38z"/>
		<path class="st21" d="M283.47,43.39v226.36c0,7.22-5.91,13.13-13.13,13.13H166.81c-7.22,0-13.13-5.91-13.13-13.13V43.39
			c0-7.22,5.91-13.13,13.13-13.13h27.99c1.07,0,2.03,0.65,2.44,1.64l2,4.88c0.37,0.91,1.26,1.51,2.25,1.51h38.85
			c0.97,0,1.84-0.57,2.23-1.45l1.88-4.27c0.62-1.4,2-2.3,3.53-2.3h22.37C277.56,30.27,283.47,36.17,283.47,43.39z"/>
		<path class="st22" d="M283.47,43.22v4.85H153.68v-4.85c0-7.22,5.91-13.13,13.13-13.13h27.99c1.07,0,2.03,0.65,2.44,1.64l2,4.88
			c0.37,0.91,1.26,1.51,2.25,1.51h38.85c0.97,0,1.84-0.57,2.23-1.45l1.88-4.27c0.62-1.4,2-2.3,3.53-2.3h22.37
			C277.56,30.09,283.47,36,283.47,43.22z"/>
		<g>
			<path class="st23" d="M241.23,126.63c0,6.95-3.12,13.17-8.04,17.33c-3.95,3.34-9.07,5.36-14.65,5.36
				c-5.51,0-10.56-1.96-14.49-5.23c-5.01-4.16-8.21-10.44-8.21-17.47c0-12.53,10.16-22.7,22.7-22.7
				C231.07,103.94,241.23,114.1,241.23,126.63z"/>
			<path class="st24" d="M233.18,143.97c-3.95,3.34-9.07,5.36-14.65,5.36c-5.51,0-10.56-1.96-14.49-5.23
				c0.42-4.28,1.59-8.16,3.29-11.33c1.12-2.09,3.67-2.92,5.81-1.92c1.64,0.76,3.46,1.19,5.38,1.19c1.97,0,3.83-0.45,5.5-1.24
				c2.14-1.02,4.69-0.2,5.83,1.88C231.56,135.83,232.74,139.7,233.18,143.97z"/>
			<path class="st24" d="M227.96,119.3c0,5.21-4.22,9.43-9.43,9.43s-9.43-4.22-9.43-9.43c0-5.21,4.22-9.43,9.43-9.43
				S227.96,114.09,227.96,119.3z"/>
		</g>
		<g>
			<g>
				<circle class="st25" cx="255.5" cy="222.39" r="13.7"/>
				<path class="st21" d="M258,216.83c0,0,1.22-3.8,2.24-3.93c1.02-0.14,4.85,2.44,4.21,6.61c-0.64,4.17-6.41,10.21-10.89,10.58
					c-4.48,0.37-7.46-2.41-7.05-3.36c0.41-0.95,2.24-3.29,3.87-2.48c1.63,0.81,3.02,2.51,4.88,1.05c1.87-1.46,4.99-4.07,5.19-5.49
					C260.65,218.39,258,218.32,258,216.83z"/>
			</g>
			<g>
				<circle class="st26" cx="181.65" cy="222.39" r="13.7"/>
				<path class="st21" d="M184.16,216.83c0,0,1.22-3.8,2.24-3.93c1.02-0.14,4.85,2.44,4.21,6.61c-0.64,4.17-6.41,10.21-10.89,10.58
					c-4.48,0.37-7.46-2.41-7.05-3.36c0.41-0.95,2.24-3.29,3.87-2.48c1.63,0.81,3.02,2.51,4.88,1.05c1.87-1.46,4.99-4.07,5.19-5.49
					C186.8,218.39,184.16,218.32,184.16,216.83z"/>
			</g>
			<g>
				<path class="st27" d="M205.83,222.39c0,1.16-0.94,2.1-2.1,2.1s-2.09-0.94-2.09-2.1s0.94-2.09,2.09-2.09
					S205.83,221.23,205.83,222.39z"/>
				<path class="st27" d="M215.08,222.48c0,1.16-0.94,2.09-2.09,2.09s-2.1-0.94-2.1-2.09c0-1.16,0.94-2.09,2.1-2.09
					S215.08,221.32,215.08,222.48z"/>
				<path class="st27" d="M224.34,222.39c0,1.16-0.94,2.1-2.1,2.1s-2.09-0.94-2.09-2.1s0.94-2.09,2.09-2.09
					S224.34,221.23,224.34,222.39z"/>
				<path class="st27" d="M233.59,222.48c0,1.16-0.94,2.09-2.09,2.09s-2.1-0.94-2.1-2.09c0-1.16,0.94-2.09,2.1-2.09
					S233.59,221.32,233.59,222.48z"/>
			</g>
		</g>
		<g>
			<path class="st28" d="M234.46,168.18h-34.92c-2.75,0-4.98-2.23-4.98-4.98l0,0c0-2.75,2.23-4.98,4.98-4.98h34.92
				c2.75,0,4.98,2.23,4.98,4.98l0,0C239.44,165.96,237.21,168.18,234.46,168.18z"/>
			<path class="st27" d="M198.47,186.16H188.4c-0.83,0-1.51-0.68-1.51-1.51v-0.12c0-0.83,0.68-1.51,1.51-1.51h10.07
				c0.83,0,1.51,0.68,1.51,1.51v0.12C199.98,185.49,199.31,186.16,198.47,186.16z"/>
			<path class="st27" d="M216.45,186.16h-10.07c-0.83,0-1.51-0.68-1.51-1.51v-0.12c0-0.83,0.68-1.51,1.51-1.51h10.07
				c0.83,0,1.51,0.68,1.51,1.51v0.12C217.96,185.49,217.29,186.16,216.45,186.16z"/>
			<path class="st27" d="M234.26,186.16h-10.07c-0.83,0-1.51-0.68-1.51-1.51v-0.12c0-0.83,0.68-1.51,1.51-1.51h10.07
				c0.83,0,1.51,0.68,1.51,1.51v0.12C235.77,185.49,235.09,186.16,234.26,186.16z"/>
			<path class="st27" d="M252.24,186.16h-10.07c-0.83,0-1.51-0.68-1.51-1.51v-0.12c0-0.83,0.68-1.51,1.51-1.51h10.07
				c0.83,0,1.51,0.68,1.51,1.51v0.12C253.75,185.49,253.08,186.16,252.24,186.16z"/>
			<path class="st27" d="M254.19,176.74h-71.23c-1.4,0-2.53-1.13-2.53-2.53l0,0c0-1.4,1.13-2.53,2.53-2.53h71.23
				c1.4,0,2.53,1.13,2.53,2.53l0,0C256.72,175.6,255.59,176.74,254.19,176.74z"/>
		</g>
		<rect x="153.76" y="48.07" class="st29" width="129.71" height="12.22"/>
		<path class="st27" d="M240.09,268.39h-46.26c-2.17,0-3.93-1.76-3.93-3.93l0,0c0-2.17,1.76-3.93,3.93-3.93h46.26
			c2.17,0,3.93,1.76,3.93,3.93l0,0C244.02,266.63,242.26,268.39,240.09,268.39z"/>
	</g>
	<g>
		<linearGradient id="SVGID_18_" gradientUnits="userSpaceOnUse" x1="333.3301" y1="145.9868" x2="327.8057" y2="120.0017">
			<stop  offset="0" style="stop-color:#E85B7D"/>
			<stop  offset="1" style="stop-color:#FF78AF"/>
		</linearGradient>
		<path class="st30" d="M332.03,131.09l0.82,4.91h-0.41l-2.94,0.61l-1.01,0.21c-0.55-3.41-1.4-4.69-2.86-8.05
			c-0.52-1.19-0.88-2.82-1.11-4.38c-0.38-2.55-0.42-4.94-0.25-5.03c0.27-0.14,1.5,6,1.5,6s-0.95-8.32-0.41-8.32
			c0.53,0,1.57,7.17,1.63,7.62c-0.04-0.48-0.8-8.58-0.27-8.71c0.54-0.13,2.26,8.46,2.32,8.72c-0.03-0.25-0.82-7.41-0.41-7.5
			c0.44-0.09,0.91,2.99,1.36,5.32c0.25,1.26,0.68,2.46,0.68,2.46c1.36-1.91,0.55-5.05,0.95-5.05c0.41,0,1.23,2.86,1.23,4.5
			c0,0.16-0.01,0.36-0.03,0.6c0,0,0,0,0,0c-0.01,0.08-0.01,0.16-0.02,0.24v0c-0.03,0.32-0.07,0.68-0.11,1.07
			C332.45,128.37,332.03,131.09,332.03,131.09z"/>
		<path class="st31" d="M328.96,133.06c0,1.77,0.54,3.54,0.54,3.54l-1.01,0.21c-0.55-3.41-1.4-4.69-2.86-8.05
			c-0.52-1.19-0.88-2.82-1.11-4.38c0.39,1.43,1.11,3.7,2,4.86C327.87,131.02,328.96,131.29,328.96,133.06z"/>
		<linearGradient id="SVGID_19_" gradientUnits="userSpaceOnUse" x1="332.8013" y1="125.129" x2="332.8206" y2="125.129">
			<stop  offset="0" style="stop-color:#F99393"/>
			<stop  offset="1" style="stop-color:#FFB0B4"/>
		</linearGradient>
		<path class="st32" d="M332.82,125.01c-0.01,0.08-0.01,0.16-0.02,0.24C332.8,125.14,332.81,125.06,332.82,125.01z"/>
		<path class="st31" d="M332.85,136h-0.41l-2.94,0.61l2.87-0.68c0,0-1.5-4.23-1.23-5.46c0.22-1.01,1.21-2.53,1.54-4.15
			c-0.24,2.05-0.66,4.76-0.66,4.76L332.85,136z"/>
		<path class="st33" d="M374.32,280.87l0.41,13.23h-0.62l-0.68-6.55c0,0,0.32,4.97-3.41,7.64c-4.77,3.41-6.4-0.34-5.05-2.46
			c2.18-3.41,3.27-6.55,3.82-12.14C368.79,280.59,371.59,278.55,374.32,280.87z"/>
		
			<linearGradient id="SVGID_20_" gradientUnits="userSpaceOnUse" x1="4302.6548" y1="287.0133" x2="4307.7588" y2="287.0133" gradientTransform="matrix(-1 0 0 1 4675.2671 0)">
			<stop  offset="0" style="stop-color:#E85B7D"/>
			<stop  offset="1" style="stop-color:#FF78AF"/>
		</linearGradient>
		<path class="st34" d="M369.2,282.23c1.91,0.55,3.41,0.14,3.41,0.14s-0.32,6.81-3,8.73c-2.86,2.05-2.13-0.93-1.64-2.05
			C369.07,286.59,369.2,282.23,369.2,282.23z"/>
		
			<linearGradient id="SVGID_21_" gradientUnits="userSpaceOnUse" x1="4310.395" y1="216.9027" x2="4298.937" y2="268.4637" gradientTransform="matrix(-1 0 0 1 4675.2671 0)">
			<stop  offset="0" style="stop-color:#E85B7D"/>
			<stop  offset="1" style="stop-color:#FF78AF"/>
		</linearGradient>
		<path class="st35" d="M360.06,214.16c0,0,2.18,13.64,2.86,19.64c0.68,6,4.09,39.01,5.87,47.06c0,0,0.57,0.41,1.49,0.64
			c1,0.25,2.41,0.28,3.96-0.64c0,0-1.09-29.46-0.55-38.6c0.55-9.14-0.68-21.14,0.55-28.1c0.94-5.3-7.79-2.52-12-0.9
			C360.94,213.77,360.06,214.16,360.06,214.16z"/>
		<path class="st33" d="M355.09,280.93l0.41,13.23h-0.62l-0.68-6.55c0,0,0.32,4.97-3.41,7.64c-4.77,3.41-6.4-0.34-5.05-2.46
			c2.18-3.41,3.27-6.55,3.82-12.14C349.56,280.66,352.36,278.61,355.09,280.93z"/>
		
			<linearGradient id="SVGID_22_" gradientUnits="userSpaceOnUse" x1="4321.8892" y1="287.0815" x2="4326.9927" y2="287.0815" gradientTransform="matrix(-1 0 0 1 4675.2671 0)">
			<stop  offset="0" style="stop-color:#E85B7D"/>
			<stop  offset="1" style="stop-color:#FF78AF"/>
		</linearGradient>
		<path class="st36" d="M349.97,282.3c1.91,0.55,3.41,0.14,3.41,0.14s-0.32,6.81-3,8.73c-2.86,2.05-2.13-0.93-1.64-2.05
			C349.83,286.66,349.97,282.3,349.97,282.3z"/>
		<linearGradient id="SVGID_23_" gradientUnits="userSpaceOnUse" x1="354.8599" y1="216.3575" x2="343.4507" y2="267.6993">
			<stop  offset="0" style="stop-color:#E85B7D"/>
			<stop  offset="1" style="stop-color:#FF78AF"/>
		</linearGradient>
		<path class="st37" d="M354.5,219.82c-0.24,6.81,0.38,15.5-0.03,22.51c-0.55,9.14,0.55,38.6,0.55,38.6c-1,0.59-1.94,0.79-2.75,0.79
			c-0.45,0-0.86-0.06-1.22-0.15c-0.92-0.23-1.49-0.64-1.49-0.64c-1.77-8.05-5.18-41.06-5.87-47.06c-0.68-6-2.86-19.64-2.86-19.64
			s0.87-0.39,2.19-0.9c4.21-1.62,12.93-4.4,12,0.9C354.73,215.85,354.58,217.75,354.5,219.82z"/>
		<path class="st31" d="M352.27,281.72c1.25-4.33,1.28-11.65,0.02-18.66c-1.64-9.14-0.27-14.19,0-22.24
			c0.27-8.05-1.91-19.1-1.91-19.1l4.12-1.91c-0.24,6.81,0.38,15.5-0.03,22.51c-0.55,9.14,0.55,38.6,0.55,38.6
			C354.01,281.52,353.08,281.72,352.27,281.72z"/>
		<path class="st31" d="M371.5,281.72c1.25-4.33,1.28-11.65,0.02-18.66c-1.64-9.14-0.27-14.19,0-22.24
			c0.27-8.05-1.91-19.1-1.91-19.1l4.12-1.91c-0.24,6.81,0.38,15.5-0.03,22.51c-0.55,9.14,0.55,38.6,0.55,38.6
			C373.25,281.52,372.31,281.72,371.5,281.72z"/>
		<path class="st38" d="M315.73,155.16"/>
		<path class="st39" d="M346.9,133.4c0,0,0.96-4.32-0.55-14.73c-1.5-10.37-0.34-17.12,3.75-15.35c0,0,0-3.14,4.77-4.09
			c4.77-0.95,10.16,2.66,11.39,9.48c1.23,6.82,2.05,20.6,4.23,24.69C372.68,137.5,346.9,133.4,346.9,133.4z"/>
		<linearGradient id="SVGID_24_" gradientUnits="userSpaceOnUse" x1="368.7747" y1="174.9182" x2="352.6148" y2="219.4565">
			<stop  offset="0" style="stop-color:#662ACC"/>
			<stop  offset="1" style="stop-color:#7459D6"/>
		</linearGradient>
		<path class="st40" d="M376.32,201.89c-0.22,9.39-0.71,19.02-0.71,19.02c-19.23,6.82-34.92,0.82-34.92,0.82
			c-1.23-9.69-1.6-23.78,0.8-33.55c1.49-6.09,2.68-10.31,2.68-10.31l30.97-1.09C376.42,182.19,376.53,192.68,376.32,201.89z"/>
		<linearGradient id="SVGID_25_" gradientUnits="userSpaceOnUse" x1="371.784" y1="145.3424" x2="355.0698" y2="209.7536">
			<stop  offset="0" style="stop-color:#5629A9"/>
			<stop  offset="1" style="stop-color:#603DB7;stop-opacity:0"/>
		</linearGradient>
		<path class="st41" d="M376.32,201.89c-2.99-1.47-7.22-4.05-12.64-8.6c-9.52-7.99-18.86-6.15-22.19-5.1
			c1.49-6.09,2.68-10.31,2.68-10.31l30.97-1.09C376.42,182.19,376.53,192.68,376.32,201.89z"/>
		<linearGradient id="SVGID_26_" gradientUnits="userSpaceOnUse" x1="378.8982" y1="173.3937" x2="371.5323" y2="189.1485">
			<stop  offset="0" style="stop-color:#E85B7D"/>
			<stop  offset="1" style="stop-color:#FF78AF"/>
		</linearGradient>
		<path class="st42" d="M375.82,182.79c0,0,0.14,1.23-0.55,3.27c-0.43,1.28-1.6,2.36-2.46,3.55c-0.32,0.45-0.46,0.97-0.51,1.44
			c-0.03,0.28-0.04,0.54-0.04,0.75c0,0.83,1.36,3.55,0.68,3.27c-0.46-0.18-1.3-2.02-1.64-3.14c-0.4-1.33,0.11-3.71,0.13-3.82
			c-0.03,0.04-0.29,0.47-0.54,1.5c-0.15,0.59-0.29,1.55-0.14,2.18c0.55,2.32,1.36,4.09,0.95,4.09c-0.41,0-1.13-1.47-1.91-3.41
			c-0.27-0.68-0.27-1.5-0.27-2.59c0-1.33,0.14-2.32,0.14-2.32c-0.41,1.77-0.55,2.86-0.55,3.82c0,0.95,0.41,3.82,0.14,3.68
			c-0.35-0.18-0.95-2.32-1.09-3.27c-0.25-1.76-0.17-4.5,0.14-5.05c0.55-0.95,4.37-6.55,4.37-6.55l2.68,1.29l1.05,0.51L375.82,182.79
			z"/>
		<path class="st31" d="M375.82,182.79c0,0,0.14,1.23-0.55,3.27c-0.43,1.28-1.6,2.36-2.46,3.55c-0.32,0.45-0.46,0.97-0.51,1.44
			c0,0-0.45-1.44,1.05-3.35c1.5-1.91,0.95-3.96,1.23-4.77c0.13-0.4,0.47-0.97,0.77-1.44l1.05,0.51L375.82,182.79z"/>
		<linearGradient id="SVGID_27_" gradientUnits="userSpaceOnUse" x1="364.3903" y1="208.1416" x2="355.6361" y2="129.5977">
			<stop  offset="0" style="stop-color:#F4BA38"/>
			<stop  offset="1" style="stop-color:#FFD349"/>
		</linearGradient>
		<path class="st43" d="M387.96,155.09c-0.14-1.5-14.87-23.6-15.96-24.01c-1.09-0.41-12-1.23-14.46-0.55l-3.03,0.05
			c0,0-8.84,1.04-10.47,2.82c-1.14,1.23-4.32,10.71-6.15,16.37c-0.67,2.06-1.15,3.61-1.3,4.08c-0.03,0.1-0.05,0.15-0.05,0.15
			l-0.6-3.59l-2.54-15.23l-6.41,1.23c0,0,1.64,15.55,2.32,21.42c0.68,5.87,2.18,11.6,3.96,12.82c1.77,1.23,6.55,0.41,7.64-1.36
			c0.73-1.18,2.08-3.51,3.74-8.25c0.71-2.03,1.32-3.92,1.69-5.28c0.06-0.24,0.12-0.46,0.17-0.66c0,0,0.02,0.71,0,1.95
			c0,0.11,0,0.21-0.01,0.33c-0.08,4.01-0.52,12.78-2.72,22c0,0,12.83,6.29,27.13,0.03c0.53-0.23,1.05-0.47,1.58-0.74
			c0.07-0.03,0.14-0.07,0.21-0.1l-0.68,1.23c0,0,0,0,0,0l4.91,2.46c0,0,6-12.41,8.18-17.46
			C387.28,159.73,388.1,156.59,387.96,155.09z M378.28,155.91c-0.09,0.63-1.48,7.1-2.42,11.46c-0.29,1.36-0.54,2.52-0.7,3.22
			c-0.1,0.46-0.16,0.73-0.16,0.73s-0.01-0.04-0.02-0.11c-0.2-1.25-2.03-12.96-2.03-14.9c0-2.05,0.82-6.82,0.82-6.82
			s0.03,0.04,0.09,0.11C374.52,150.39,378.4,155.04,378.28,155.91z"/>
		<linearGradient id="SVGID_28_" gradientUnits="userSpaceOnUse" x1="348.7083" y1="167.6036" x2="342.4334" y2="129.4083">
			<stop  offset="0" style="stop-color:#FF911E"/>
			<stop  offset="1" style="stop-color:#FE931E;stop-opacity:0"/>
		</linearGradient>
		<path class="st44" d="M345.54,149.77c0.18,1.28,0.56,4.19,0.79,5.98c-0.36,1.36-0.98,3.25-1.69,5.28
			c-0.58-3.62-1.62-10.73-1.01-11.94c0.82-1.64,3.82-7.37,3.82-7.37S345.26,147.86,345.54,149.77z"/>
		<path class="st45" d="M346.49,157.05c0.02,0.13,0.03,0.2,0.03,0.2l-0.03,0.12C346.48,157.26,346.49,157.15,346.49,157.05z"/>
		<path class="st45" d="M367.64,155.09"/>
		<linearGradient id="SVGID_29_" gradientUnits="userSpaceOnUse" x1="377.6096" y1="191.2654" x2="364.514" y2="133.1538">
			<stop  offset="0" style="stop-color:#FF911E"/>
			<stop  offset="1" style="stop-color:#FE931E;stop-opacity:0"/>
		</linearGradient>
		<path class="st46" d="M372.96,156.32c0,1.94,1.83,13.65,2.03,14.9c-1,3.53-1.96,6.08-2.51,7.44c-0.53,0.27-2.54,1.03-3.07,1.26
			c0.3-3.95,2.05-8.05,0.68-16.1c-2.36-13.93-0.27-19.64-0.27-19.64l4.05,5.43c-0.06-0.07-0.09-0.11-0.09-0.11
			S372.96,154.28,372.96,156.32z"/>
		<linearGradient id="SVGID_30_" gradientUnits="userSpaceOnUse" x1="375.16" y1="168.984" x2="375.8885" y2="168.984">
			<stop  offset="0" style="stop-color:#FF911E"/>
			<stop  offset="1" style="stop-color:#FE931E;stop-opacity:0"/>
		</linearGradient>
		<path class="st47" d="M375.89,167.8c-0.24,0.98-0.49,1.92-0.73,2.79c0.15-0.7,0.4-1.86,0.7-3.22L375.89,167.8z"/>
		<path class="st48" d="M363,131.49c0,0-0.89,3.62-2.01,7.97c-1.71,6.67-3.93,15.05-4.26,14.81c-0.19-0.14-0.54-2.88-0.92-6.42
			c-0.72-6.74-1.54-16.36-1.54-16.36H363z"/>
		<linearGradient id="SVGID_31_" gradientUnits="userSpaceOnUse" x1="334.7693" y1="156.7997" x2="341.0891" y2="156.7997">
			<stop  offset="0" style="stop-color:#FF911E"/>
			<stop  offset="1" style="stop-color:#FE931E;stop-opacity:0"/>
		</linearGradient>
		<path class="st49" d="M338.44,163.82l-1.86-9.97c0.15-0.47,0.64-2.02,1.3-4.08L338.44,163.82z"/>
		<linearGradient id="SVGID_32_" gradientUnits="userSpaceOnUse" x1="365.5846" y1="144.1904" x2="355.3542" y2="114.9314">
			<stop  offset="0" style="stop-color:#E85B7D"/>
			<stop  offset="1" style="stop-color:#FF78AF"/>
		</linearGradient>
		<path class="st50" d="M363,131.49c0,0-3.82,4.23-8.73,0c0,0,0.46-1.29,0.56-3.38c0.03-0.59,0.03-1.24-0.01-1.94
			c0,0-0.44,0.33-1.1,0.43c-0.34,0.05-0.73,0.05-1.15-0.09c-1.23-0.41-4.23-4.77-4.5-14.05c0,0,2.03-1.04,3.39-4.56
			c0.24-0.61,0.45-1.29,0.63-2.06c0,0,1.23,4.5,6.14,6.55c0,0,0.01,0.05,0.02,0.14c0.13,0.72,0.82,4.15,2.16,5.73
			c0,0,0.14-5.73,1.91-5.32c1.77,0.41,0.73,5,0.55,5.46c-0.27,0.68-0.95,0.27-0.95,0.27S361.77,127.68,363,131.49z"/>
		<path class="st31" d="M358.36,123.86c0,0-0.86,3.01-3.53,4.26c0.03-0.59,0.03-1.24-0.01-1.94c0,0-0.44,0.33-1.1,0.43v0
			C353.71,126.61,355.63,126.04,358.36,123.86z"/>
		<path class="st31" d="M358.25,112.53c-3.15-0.19-5.63-3.01-6.79-4.62c0.24-0.61,0.45-1.29,0.63-2.06c0,0,1.23,4.5,6.14,6.55
			C358.22,112.4,358.23,112.44,358.25,112.53z"/>
		<path class="st51" d="M360.99,139.47c-1.71,6.67-3.93,15.05-4.26,14.81c-0.19-0.14-0.54-2.88-0.92-6.42L360.99,139.47z"/>
	</g>
	<g>
		<polygon class="st48" points="49.34,137.79 55.31,132.14 67.32,137.79 65.22,195 55.25,195 		"/>
		<path class="st52" d="M41.87,289.6c-0.79,0.52-2.41,0.72-2.41,0.72l-9.75-2.34c3.19-0.96,5.73-2.58,6.52-3.76
			c0.4-0.6,0.63-2.2,0.76-3.62c0.12-1.36,0.15-2.55,0.15-2.55l5.25-0.79c0,0,0.03,1.43,0.04,3.31
			C42.45,284.11,42.38,289.26,41.87,289.6z"/>
		<path class="st53" d="M42.43,280.58c-0.92,0.15-2.7,0.32-5.44,0.02c0.12-1.36,0.15-2.55,0.15-2.55l5.25-0.79
			C42.39,277.26,42.42,278.69,42.43,280.58z"/>
		<path class="st52" d="M76.64,289.86c0,0-7.09,2.36-8.66,2.05c-1.57-0.31-0.52-4.02-0.26-6.12c0.13-1.03,0.04-3.09-0.09-4.93
			c-0.13-1.92-0.3-3.6-0.3-3.6h5.38c0,0,0.08,1.68,0.19,3.42c0.09,1.45,0.21,2.94,0.33,3.54C73.49,285.53,76.64,289.86,76.64,289.86
			z"/>
		<path class="st53" d="M72.89,280.68c-1.41,0.1-3.23,0.16-5.27,0.18c-0.13-1.92-0.3-3.6-0.3-3.6h5.38
			C72.7,277.26,72.78,278.94,72.89,280.68z"/>
		<linearGradient id="SVGID_33_" gradientUnits="userSpaceOnUse" x1="36.2234" y1="234.2277" x2="74.4049" y2="234.2277">
			<stop  offset="0" style="stop-color:#7C45CC"/>
			<stop  offset="1" style="stop-color:#FB4567"/>
		</linearGradient>
		<path class="st54" d="M74.4,190.41c0,0,0,42.51,0,46.18c0,3.67-0.79,41.99-0.79,41.99h-6.56c0,0-3.94-34.51-4.07-40.54
			c-0.13-6.04-2.76-32.67-2.76-32.67l-0.06,0.19l-8.47,28.67c0,0-1.57,5.51-2.76,14.04c-1.18,8.53-6.17,30.31-6.17,30.31h-6.56
			l2.89-42.51l4.59-46.19c8.5,1.07,17.01,1.4,25.54,0.92C70.97,190.7,72.68,190.57,74.4,190.41z"/>
		<path class="st55" d="M39.5,290.38c0,0-3.25-4.33-7.66-3.15c-4.42,1.18-3.38,2.76-2.6,3.15C30.02,290.78,35.48,291.7,39.5,290.38z
			"/>
		<path class="st55" d="M76.37,291.57c-1.06,0.21-9.02,1.13-9.18,0c-0.11-0.76,0.26-2.76,2.49-3.15c2.23-0.39,6.69,1.05,7.35,1.71
			C77.69,290.78,77.03,291.43,76.37,291.57z"/>
		<linearGradient id="SVGID_34_" gradientUnits="userSpaceOnUse" x1="69.2471" y1="234.4908" x2="74.4049" y2="234.4908">
			<stop  offset="0" style="stop-color:#6D5BB8"/>
			<stop  offset="1" style="stop-color:#604AB7;stop-opacity:0"/>
		</linearGradient>
		<path class="st56" d="M74.4,190.41c0,0,0,42.51,0,46.18c0,3.67-0.79,41.99-0.79,41.99h-1.73c0.24-3.22,0.72-11.96-0.11-21.52
			c-1.05-12.07-1.71-16.53,0-30.83c1.36-11.42-1.38-28.86-2.53-35.43C70.97,190.7,72.68,190.57,74.4,190.41z"/>
		<linearGradient id="SVGID_35_" gradientUnits="userSpaceOnUse" x1="54.282" y1="186.8476" x2="46.851" y2="293.7693">
			<stop  offset="0" style="stop-color:#6D5BB8"/>
			<stop  offset="1" style="stop-color:#604AB7;stop-opacity:0"/>
		</linearGradient>
		<path class="st57" d="M60.18,205.56l-8.47,28.67c0,0-1.57,5.51-2.76,14.04c-1.18,8.53-6.17,30.31-6.17,30.31h-2.07
			c2.04-7.22,3.08-12.96,4.3-21.52c1.29-9.04-0.46-9.65,2.23-22.83c1.31-6.43,5.77-12.46,7.09-20.07
			c1.86-10.8,4.46-17.19,4.46-17.19L60.18,205.56z"/>
		<path class="st58" d="M85.69,207.85c0,0,0.92,8.53,0.66,9.05c-0.26,0.52-7.72,3.19-8.66,0.66c-1.31-3.54,0-22.96,0-22.96
			s-0.13-6.69,1.31-6.43C80.44,188.44,85.69,207.85,85.69,207.85z"/>
		<path class="st59" d="M78.73,200.77c0,0-0.79-9.18,0-10.37c0.79-1.18,1.84-1.05,3.41,6.04c1.57,7.09,1.84,12.6,2.89,13.12
			c1.05,0.52,2.76,0.66,2.76,0.66s-6.3-25.06-8-25.06c-1.71,0-3.81,1.97-3.41,15.09C76.37,200.24,76.77,205.1,78.73,200.77z"/>
		<linearGradient id="SVGID_36_" gradientUnits="userSpaceOnUse" x1="56.8512" y1="132.6812" x2="57.2154" y2="142.3919">
			<stop  offset="0" style="stop-color:#E85B7D"/>
			<stop  offset="1" style="stop-color:#FF78AF"/>
		</linearGradient>
		<path class="st60" d="M61.55,122.7l-0.15,4.59l-0.1,3.03l-0.14,4.19c-5.12,7.48-8.79,0-8.79,0l-0.52-4.81l-0.17-1.57l-0.1-0.97
			L61.55,122.7z"/>
		<path class="st31" d="M61.28,127.12l0,3.04c-1.24,1.68-2.89,3.5-4.22,3.55c-1.75,0.06-4.03-2.38-5.24-3.84l-0.22-1.56
			C53.94,126.77,58.66,126.9,61.28,127.12z"/>
		<path class="st39" d="M47.51,118.88c0,0-1.23-4.54-0.74-6.75c0.49-2.21,2.58-1.23,2.58-1.23s-1.1-1.96,0.49-3.81
			s8.1-2.7,11.91-1.11c3.81,1.6,1.47,5.03,1.47,5.03s4.79-1.23,1.47,7.24l-7.37,3.07L47.51,119V118.88z"/>
		<linearGradient id="SVGID_37_" gradientUnits="userSpaceOnUse" x1="51.7924" y1="120.7765" x2="45.5459" y2="120.3064">
			<stop  offset="0" style="stop-color:#E85B7D"/>
			<stop  offset="1" style="stop-color:#FF78AF"/>
		</linearGradient>
		<path class="st61" d="M49.72,118.76c0,0-1.84-1.96-2.46-0.74c-0.61,1.23,0.74,5.77,3.68,5.53L49.72,118.76z"/>
		<linearGradient id="SVGID_38_" gradientUnits="userSpaceOnUse" x1="61.3595" y1="120.5858" x2="65.1884" y2="120.5858">
			<stop  offset="0" style="stop-color:#E85B7D"/>
			<stop  offset="1" style="stop-color:#FF78AF"/>
		</linearGradient>
		<path class="st62" d="M62.59,118.76c0,0,1.84-1.96,2.46-0.74c0.61,1.23-0.74,5.77-3.68,5.53L62.59,118.76z"/>
		
			<linearGradient id="SVGID_39_" gradientUnits="userSpaceOnUse" x1="-51.6813" y1="309.8129" x2="-64.5391" y2="293.3689" gradientTransform="matrix(0.9981 0.0617 -0.0617 0.9981 135.742 -173.283)">
			<stop  offset="0" style="stop-color:#E85B7D"/>
			<stop  offset="1" style="stop-color:#FF78AF"/>
		</linearGradient>
		<path class="st63" d="M63.19,118.69C63.19,118.69,63.19,118.7,63.19,118.69c-0.03,0.28-1,8.08-1.45,9.51
			c-0.37,1.17-2.31,3.12-4.01,3.77c-0.41,0.16-0.8,0.24-1.16,0.22c-1.47-0.09-2.84-1.01-3.88-2.1c-0.6-0.63-1.09-1.31-1.41-1.92
			c-0.88-1.65-1.7-10.31-1.7-10.31s1.21-1.35,1.59-4.3c0.05-0.35,0.08-0.73,0.1-1.13c0,0,6.78-2.16,11.02,0.8c0,0,0,0.02-0.01,0.05
			C62.26,113.67,62.08,116.35,63.19,118.69z"/>
		<path class="st31" d="M62.98,118.27c-0.02,0.28-0.5,8.12-0.86,9.57c-0.3,1.19-2.11,3.25-3.77,4.01
			C61.59,129.66,62.94,118.55,62.98,118.27z"/>
		<path class="st31" d="M61.75,112.86c0,0,0,0.02,0,0.05c-4.55-1.06-9.42,0.39-11.08,0.96c0.02-0.36,0.03-0.73,0.03-1.13
			C50.7,112.74,57.33,110.16,61.75,112.86z"/>
		<linearGradient id="SVGID_40_" gradientUnits="userSpaceOnUse" x1="44.3589" y1="189.2373" x2="40.4371" y2="135.7763">
			<stop  offset="0" style="stop-color:#F4BA38"/>
			<stop  offset="1" style="stop-color:#FFD349"/>
		</linearGradient>
		<path class="st64" d="M57.35,191.98c-2.48,0.04-4.68-0.13-6.55-0.4c-4.33-0.61-6.84-1.7-6.84-1.7l-1.31-33.46
			c0,0-2.09,6.72-2.72,9.58c-0.13,0.58-0.19,1-0.17,1.17c0.13,1.05,1.71,8.4,1.71,8.4l-7.61,2.89c0,0-3.8-7.48-3.8-9.97
			c0-2.49,5.51-26.5,6.69-28.34s15.61-5.64,15.61-5.64L57.35,191.98z"/>
		<linearGradient id="SVGID_41_" gradientUnits="userSpaceOnUse" x1="61.6011" y1="196.5466" x2="80.8907" y2="114.2709">
			<stop  offset="0" style="stop-color:#F4BA38"/>
			<stop  offset="1" style="stop-color:#FFD349"/>
		</linearGradient>
		<path class="st65" d="M74.37,168.09c0.08-0.79,0.11-1.47,0.03-1.83c-0.26-1.31-2.1-6.95-2.1-6.95c0.26,3.15,2.1,33.33,2.1,33.33
			c-1.74,0.05-3.76-0.03-5.62-0.14c-3.2-0.2-5.93-0.51-5.93-0.51l-1.44-57.47c7.22,0.66,14.83,3.94,15.61,4.46
			c0.79,0.52,6.3,26.37,6.3,27.42c0,1.05-2.23,8.66-2.23,8.66l-7.41-2.08l-0.07-0.02c0,0,0.02-0.08,0.04-0.22
			c0.13-0.68,0.52-2.84,0.7-4.53c0,0,0,0,0,0c0,0,0-0.01,0-0.02c0-0.02,0.01-0.05,0.01-0.07C74.37,168.1,74.37,168.1,74.37,168.09z"
			/>
		<linearGradient id="SVGID_42_" gradientUnits="userSpaceOnUse" x1="34.3156" y1="196.0201" x2="65.8088" y2="130.2782">
			<stop  offset="0" style="stop-color:#FF911E"/>
			<stop  offset="1" style="stop-color:#FE931E;stop-opacity:0"/>
		</linearGradient>
		<path class="st66" d="M50.8,191.58c-4.33-0.61-6.84-1.7-6.84-1.7l-1.31-33.46c0,0-2.09,6.72-2.72,9.58l-1.75,5.11l5.51-24.67
			c0,0,2.49,8.66,1.57,20.47C44.56,176.1,50.67,183.14,50.8,191.58z"/>
		<path class="st67" d="M73.62,172.95c0,0,0.02-0.08,0.04-0.22c0.01,0.08,0.02,0.15,0.02,0.23L73.62,172.95z"/>
		<path class="st67" d="M74.37,168.11c0,0.03-0.01,0.06-0.01,0.07C74.36,168.16,74.37,168.13,74.37,168.11z"/>
		<linearGradient id="SVGID_43_" gradientUnits="userSpaceOnUse" x1="82.6557" y1="193.0704" x2="37.5155" y2="110.0124">
			<stop  offset="0" style="stop-color:#FF911E"/>
			<stop  offset="1" style="stop-color:#FE931E;stop-opacity:0"/>
		</linearGradient>
		<path class="st68" d="M72.31,159.31c0.26,3.15,2.1,33.33,2.1,33.33c-1.74,0.05-3.76-0.03-5.62-0.14
			c3.27-6.48,2.21-19.77,1.16-26.23c-1.18-7.22,0-21.52,0-21.52s4.85,18.24,4.85,18.89c0,0.59-0.36,3.82-0.43,4.46
			c0.08-0.79,0.11-1.47,0.03-1.83C74.14,164.95,72.31,159.31,72.31,159.31z"/>
		<linearGradient id="SVGID_44_" gradientUnits="userSpaceOnUse" x1="36.0522" y1="173.2695" x2="46.5787" y2="197.7281">
			<stop  offset="0" style="stop-color:#E85B7D"/>
			<stop  offset="1" style="stop-color:#FF78AF"/>
		</linearGradient>
		<path class="st69" d="M48.29,195.52c-0.17,0.54-0.47,1.02-0.84,1.43c-1.05,1.2-2.57,1.85-2.57,1.85
			c-3.67-5.77-11.02-20.34-11.02-20.34l5.2-1.97l2.41-0.91c0.32,0.74,1.51,5.18,3.02,9.97C46,190.35,48.29,195.52,48.29,195.52z"/>
		<path class="st31" d="M48.29,195.52c-0.17,0.54-0.47,1.02-0.84,1.43c-1.05-4.73-3.38-6.14-4.67-11.53
			c-0.96-4.03-2.69-7.24-3.72-8.93l2.41-0.91c0.32,0.74,1.51,5.18,3.02,9.97C46,190.35,48.29,195.52,48.29,195.52z"/>
		<path class="st70" d="M42.65,177.94c0,0-8,2.89-8.4,3.15c-0.39,0.26-2.62-4.2-2.62-4.2L42,173.22
			C42,173.22,43.23,177.07,42.65,177.94z"/>
		<path class="st58" d="M67.32,135.17c0,0-1.58,38.73,9.12,48.36l-1.64,3.6c0,0-12.46-12.47-10.49-52.22
			C64.31,134.9,65.35,134.25,67.32,135.17z"/>
		<linearGradient id="SVGID_45_" gradientUnits="userSpaceOnUse" x1="79.0556" y1="174.7872" x2="72.8635" y2="207.9148">
			<stop  offset="0" style="stop-color:#E85B7D"/>
			<stop  offset="1" style="stop-color:#FF78AF"/>
		</linearGradient>
		<path class="st71" d="M79.39,197.1c0.26,0.79,0.52,5.25-0.66,5.77c-1.18,0.52-3.94,0.26-3.94,0.26s4.46,4.85,3.81,4.99
			c-0.66,0.13-4.72-3.41-4.99-4.2c-0.26-0.79-1.97-7.35-1.84-10.76c0.13-3.41,1.84-20.47,1.84-20.47l4.61,1.46l2.87,0.91
			c-0.84,2.64-5.38,18.37-5.38,18.37c0.01,0.02,0.02,0.04,0.03,0.06c0.92,2.14,2.34,7.29,2.34,7.29S79.13,196.31,79.39,197.1z"/>
		<path class="st31" d="M75.72,193.42c0.01,0.02,0.02,0.04,0.03,0.06L74.4,195c1.57-4.07,0.79-8.4,2.62-13.38
			c1.16-3.15,1.27-5.88,1.2-7.47l2.87,0.91C80.25,177.7,75.72,193.42,75.72,193.42z"/>
		<path class="st70" d="M72.57,171.77l10.37,2.89c0,0-1.57,3.94-1.84,4.07c-0.26,0.13-8.27-1.97-8.4-2.23
			C72.57,176.23,72.57,171.77,72.57,171.77z"/>
	</g>
	<g>
		<path class="st52" d="M112.32,295.61c1.6,1.07,13.74-5.34,14.68-6c0.84-0.6,0.16-5.44,0.02-6.38c-0.01-0.1-0.02-0.16-0.02-0.16
			l0.03-3l-6.9-1.34l0.18,4.41l0.01,0.33c0,0,0.27,1.2-0.4,2.14C119.26,286.54,110.72,294.55,112.32,295.61z"/>
		<path class="st72" d="M120.13,278.73l0.18,4.41c1.28,0.55,3.79,1.24,6.71,0.08c-0.01-0.1-0.02-0.16-0.02-0.16l0.03-3
			L120.13,278.73z"/>
		<path class="st52" d="M140.74,289.21c0.67,0.8,3.07,0.53,4.94,0.67c1.87,0.13,14.68,1.87,15.35,0c0.65-1.81-12.95-6.36-13.83-6.66
			c-0.03-0.01-0.05-0.01-0.05-0.01l0.05-3.34l-6.55-1.94l0.1,5.41c0,0,0,0.02-0.01,0.07C140.66,284,140.12,288.46,140.74,289.21z"/>
		<path class="st72" d="M140.74,283.34c0,0,0,0.02-0.01,0.07c1.54,0.31,4.16,0.63,6.46-0.19c-0.03-0.01-0.05-0.01-0.05-0.01
			l0.05-3.34l-6.55-1.94L140.74,283.34z"/>
		<linearGradient id="SVGID_46_" gradientUnits="userSpaceOnUse" x1="115.791" y1="234.5127" x2="150.1037" y2="234.5127">
			<stop  offset="0" style="stop-color:#7C45CC"/>
			<stop  offset="1" style="stop-color:#FB4567"/>
		</linearGradient>
		<path class="st73" d="M115.79,223.02l1.6,15.35c0,0,1.07,24.15,2.94,42.3c0,0,0.76,0.38,1.87,0.63c1.34,0.3,3.19,0.4,4.8-0.63
			c0,0,2.27-42.17,2.67-46.17c0.33-3.31,0.93-19.46,1.13-24.97c0.04-1.16,0.07-1.85,0.07-1.85s6.67,27.09,7.21,29.22
			c0.53,2.14,1.73,32.43,2.8,43.77c0,0,0.52,0.19,1.38,0.33c1.17,0.19,2.97,0.29,4.9-0.33c0,0,2.67-44.84,2.94-47.64
			c0.27-2.8-2.4-18.68-2.4-18.68l-10.81-26.82l-0.62,0.05l-15.66,1.28L115.79,223.02z"/>
		
			<linearGradient id="SVGID_47_" gradientUnits="userSpaceOnUse" x1="5711.0542" y1="196.8235" x2="5694.7744" y2="332.0979" gradientTransform="matrix(-1 0 0 1 5834.8564 0)">
			<stop  offset="0" style="stop-color:#6D5BB8"/>
			<stop  offset="1" style="stop-color:#604AB7;stop-opacity:0"/>
		</linearGradient>
		<path class="st74" d="M115.79,223.02l1.6,15.35c0,0,1.07,24.15,2.94,42.3c0,0,0.76,0.38,1.87,0.63v0
			c-0.87-2.51-0.47-14.17-0.07-21.38c0.4-7.21,0.13-9.07-0.93-19.48c-1.07-10.41,4-20.28,5.07-32.29
			c1.07-12.01,8.01-12.14,8.01-12.14l1.98-8.42l-15.66,1.28L115.79,223.02z"/>
		
			<linearGradient id="SVGID_48_" gradientUnits="userSpaceOnUse" x1="5701.1074" y1="195.6266" x2="5688.1597" y2="303.2176" gradientTransform="matrix(-1 0 0 1 5834.8564 0)">
			<stop  offset="0" style="stop-color:#6D5BB8"/>
			<stop  offset="1" style="stop-color:#604AB7;stop-opacity:0"/>
		</linearGradient>
		<path class="st75" d="M130.8,201.61v7.92c0.04-1.16,0.07-1.85,0.07-1.85s6.67,27.09,7.21,29.22c0.53,2.14,1.73,32.43,2.8,43.77
			c0,0,0.52,0.19,1.38,0.33c0.36-4.27-0.22-12.31-0.64-21.88c-0.53-12.14,0.93-19.75,1.47-23.09c0.53-3.34-3.6-7.21-6.14-15.48
			C134.41,212.28,130.8,201.61,130.8,201.61z"/>
		<path class="st48" d="M120.59,141.22l1.53,24.6l1.54,24.9c8.27,2.67,11.88,0,11.88,0l0.34-11.73l0.99-33.77l-5.47-5.6
			c0,0-3.6,7.61-4.8,7.34C125.4,146.69,120.59,141.22,120.59,141.22z"/>
		<path class="st51" d="M122.12,165.83l1.54,24.9c8.27,2.67,11.88,0,11.88,0l0.34-11.73c-0.6-0.33-1.33-0.53-2.21-0.54
			c-8.01-0.13-10.81-22.28-10.81-22.28L122.12,165.83z"/>
		<path class="st38" d="M159.76,163.84"/>
		<path class="st76" d="M119.39,110.4c0,0-0.27-2.54-3.34-3.2c-3.07-0.67-8.54,3.6-7.61,10.94c0.93,7.34,6.67,4.4,6.67,4.4
			L119.39,110.4z"/>
		<path class="st39" d="M133.05,125.22l1.02,10.4c0,0,1.95-17.9,0.93-21.08c-1.07-3.34-3.74-5.34-6-2.54c0,0-0.53-3.2-5.2-3.47
			c-4.67-0.27-9.74,4.27-10.01,13.08c-0.27,8.81,6.49,13.04,6.49,13.04L133.05,125.22z"/>
		
			<linearGradient id="SVGID_49_" gradientUnits="userSpaceOnUse" x1="5671.9814" y1="170.3315" x2="5655.5693" y2="137.1068" gradientTransform="matrix(-1 0 0 1 5834.8564 0)">
			<stop  offset="0" style="stop-color:#E85B7D"/>
			<stop  offset="1" style="stop-color:#FF78AF"/>
		</linearGradient>
		<path class="st77" d="M156.39,164.84l4.02,2.52l2.96,1.85c0,0,7.66-23.59,8.73-24.13c1.07-0.53,8.41-0.93,9.21-1.33
			c0.21-0.1,0.71-0.38,1.33-0.74c0,0,0,0,0,0c1.82-1.04,4.67-2.76,4.27-2.86c-0.53-0.13-2.8,1.33-4.8,1.47
			c-2,0.13-9.47-1.2-11.21-0.4c-1.73,0.8-3.74,4.8-6.14,9.21C162.36,154.83,156.39,164.84,156.39,164.84z"/>
		<path class="st31" d="M160.41,167.36l2.96,1.85c0,0,7.66-23.59,8.73-24.13c1.07-0.53,8.41-0.93,9.21-1.33
			c0.21-0.1,0.71-0.38,1.33-0.74c-0.16,0.02-5.38,0.74-8.4,0.74c-3.07,0-4.14,0.53-5.07,4.4c-0.93,3.87-6,17.08-8.41,18.82
			C160.59,167.1,160.48,167.23,160.41,167.36z"/>
		
			<linearGradient id="SVGID_50_" gradientUnits="userSpaceOnUse" x1="5679.2363" y1="167.7101" x2="5682.9033" y2="167.7101" gradientTransform="matrix(-1 0 0 1 5834.8564 0)">
			<stop  offset="0" style="stop-color:#891531"/>
			<stop  offset="1" style="stop-color:#891531;stop-opacity:0"/>
		</linearGradient>
		<path class="st78" d="M151.95,170.58l3.67-4.77l-1.67,2.1c0,0-0.37-1.19-0.97-3.07L151.95,170.58z"/>
		
			<linearGradient id="SVGID_51_" gradientUnits="userSpaceOnUse" x1="5716.1499" y1="148.2985" x2="5707.5205" y2="124.5462" gradientTransform="matrix(-1 0 0 1 5834.8564 0)">
			<stop  offset="0" style="stop-color:#E85B7D"/>
			<stop  offset="1" style="stop-color:#FF78AF"/>
		</linearGradient>
		<path class="st79" d="M118.46,127.75c0.53,0.4,1.33-0.53,1.33-0.53c0.29,3.19,1.4,9.44,1.13,12.48c-0.1,1.16-1.73,1.6-1.73,1.6
			s5.54,7.14,7.54,7.01c2-0.13,5.63-8.67,5.63-8.67s-1.62,0.13-2.96-0.27c-0.37-0.11-0.66-0.43-0.9-0.84
			c-0.52-0.9-0.76-2.24-0.82-2.64c-0.01-0.08-0.02-0.12-0.02-0.12s0.1,0.14,0.33,0.25c0,0,0,0,0.01,0c0.18,0.09,0.43,0.16,0.78,0.16
			h0.01c0.23,0,0.5-0.03,0.82-0.11c0,0,0,0,0,0c0.25-0.07,0.54-0.16,0.85-0.3c0.06-0.03,0.12-0.06,0.18-0.11
			c1.99-1.53,2.62-13.37,2.62-13.37c-0.33-0.21-0.65-0.43-0.95-0.66c-3.21-2.49-4.66-6.28-4.66-6.28c-0.23,0.81-0.53,1.58-0.88,2.31
			c-2.2,4.7-6.2,7.7-6.2,7.7s-1.6-4.27-2.8-3.07C116.59,123.48,117.93,127.35,118.46,127.75z"/>
		<path class="st39" d="M120.59,125.34c0,0,0.4,8.14,2,11.48c0,0-0.8-10.81,0.67-15.75L120.59,125.34z"/>
		<linearGradient id="SVGID_52_" gradientUnits="userSpaceOnUse" x1="140.2158" y1="217.5733" x2="148.2668" y2="143.8766">
			<stop  offset="0" style="stop-color:#F4BA38"/>
			<stop  offset="1" style="stop-color:#FFD349"/>
		</linearGradient>
		<path class="st80" d="M133.14,172.05c-0.76,14.93,0.93,40.03,2.67,48.31c1.73,8.27,17.08,4,17.08,4s-2.54-12.94-4.8-21.62
			c-1.81-6.9-4.2-26.98-5.11-34.9c-0.23-2.03-0.37-3.27-0.37-3.27s5.74,17.75,10.27,18.15c0.63,0.06,1.31-0.19,2-0.66
			c4.24-2.89,9.08-14.15,9.08-14.15l-6.94-3.87l-1.37,1.73l-0.03,0.04l-1.67,2.1c0,0-0.37-1.19-0.97-3.07
			c-1.98-6.14-6.51-19.62-9.17-22.68c-3.47-4-13.41-2.47-13.41-2.47S133.81,158.97,133.14,172.05z"/>
		
			<linearGradient id="SVGID_53_" gradientUnits="userSpaceOnUse" x1="5695.8135" y1="183.0778" x2="5678.2007" y2="155.0569" gradientTransform="matrix(-1 0 0 1 5834.8564 0)">
			<stop  offset="0" style="stop-color:#FF911E"/>
			<stop  offset="1" style="stop-color:#FE931E;stop-opacity:0"/>
		</linearGradient>
		<path class="st81" d="M142.98,167.84c-0.23-2.03-0.37-3.27-0.37-3.27s5.74,17.75,10.27,18.15c0.63,0.06,1.31-0.19,2-0.66
			c-1.23-0.51-2.46-1.53-3.2-3.47c-1.87-4.94-2.14-9.74-5.34-12.68c-3.2-2.94-3.87-8.01-4.67-11.21
			C141.68,154.7,141.74,160.93,142.98,167.84z"/>
		<linearGradient id="SVGID_54_" gradientUnits="userSpaceOnUse" x1="116.4374" y1="217.8337" x2="101.5742" y2="136.0861">
			<stop  offset="0" style="stop-color:#F4BA38"/>
			<stop  offset="1" style="stop-color:#FFD349"/>
		</linearGradient>
		<path class="st82" d="M90.17,173.25c0.4,3.6,5.34,7.07,5.34,7.07l5.26-5.87l0.48-0.54l-2-1.87l13.21-11.34
			c0,0,0.01,0.17,0.02,0.48c0.13,2.98,0.83,18.98,1.31,27.67c0.53,9.61-2,36.56-2,36.56s14.14,2.27,15.88-6.27
			c1.73-8.54-1.73-44.84-1.87-48.71c-0.13-3.87-5.67-29.56-5.67-29.56s-7.41,0.47-10.48,3C106.58,146.43,89.77,169.65,90.17,173.25z
			"/>
		
			<linearGradient id="SVGID_55_" gradientUnits="userSpaceOnUse" x1="5715.2651" y1="175.1628" x2="5745.4878" y2="145.5409" gradientTransform="matrix(-1 0 0 1 5834.8564 0)">
			<stop  offset="0" style="stop-color:#FF911E"/>
			<stop  offset="1" style="stop-color:#FE931E;stop-opacity:0"/>
		</linearGradient>
		<path class="st83" d="M96.18,170.85l4.59,3.61l0.48-0.54l-2-1.87l13.21-11.34c0,0,0.01,0.17,0.02,0.48l1.85-9.82
			c0,0-3.07,3.47-7.07,9.87C103.25,167.64,96.18,170.85,96.18,170.85z"/>
		
			<linearGradient id="SVGID_56_" gradientUnits="userSpaceOnUse" x1="5743.6548" y1="170.168" x2="5713.0322" y2="192.1844" gradientTransform="matrix(-1 0 0 1 5834.8564 0)">
			<stop  offset="0" style="stop-color:#E85B7D"/>
			<stop  offset="1" style="stop-color:#FF78AF"/>
		</linearGradient>
		<path class="st84" d="M95.51,180.32c6.27,3.74,19.62,10.68,19.62,10.68s0.4,0.67,1.87,1.47c1.47,0.8,6.14,0,6.67,0.27
			c0.53,0.27,1.6,2.67,1.87,2.54c0.27-0.13-0.4-2.8-0.53-3.2c-0.13-0.4-3.47-1.6-3.47-1.6s3.47,0.67,3.87,1.2
			c0.4,0.53,2.4,3.34,2.54,3.2c0.13-0.13-1.2-3.87-1.73-4.4c-0.53-0.53-3.71-1.76-3.71-1.76c1.23,0.11,3.04,0.56,3.84,0.96
			c0.8,0.4,2,2.4,2.4,2.54c0.4,0.13-0.13-1.73-0.4-2.27c-0.27-0.53-3.87-2.67-4.91-3.07c-0.67-0.26-2.5,0.04-4.14,0.14
			c-0.89,0.05-1.73,0.05-2.29-0.14c-1.6-0.53-15.75-12.81-15.75-12.81l-1.47,1.6L95.51,180.32z"/>
		<path class="st31" d="M99.78,175.65c2.29,1.73,11.32,8.53,13.85,10.26c2.91,1.99,5.65,1.08,5.65,1.08
			c-0.89,0.05-1.73,0.05-2.29-0.14c-1.6-0.53-15.75-12.81-15.75-12.81L99.78,175.65z"/>
		<path class="st31" d="M126.79,117.65c1.53,1.68,4.17,3.23,5.53,3.97c-3.21-2.49-4.66-6.28-4.66-6.28
			C127.43,116.14,127.13,116.92,126.79,117.65z"/>
		
			<linearGradient id="SVGID_57_" gradientUnits="userSpaceOnUse" x1="5704.8682" y1="136.251" x2="5704.666" y2="135.6941" gradientTransform="matrix(-1 0 0 1 5834.8564 0)">
			<stop  offset="0" style="stop-color:#E85B7D"/>
			<stop  offset="1" style="stop-color:#FF78AF"/>
		</linearGradient>
		<path class="st85" d="M129.62,136.05c0.25-0.07,0.54-0.16,0.85-0.3c0.06-0.03,0.12-0.06,0.18-0.11c-0.15-0.06-0.25-0.09-0.25-0.09
			S130.13,135.87,129.62,136.05z"/>
		
			<linearGradient id="SVGID_58_" gradientUnits="userSpaceOnUse" x1="5706.4854" y1="136.1576" x2="5706.4521" y2="136.0657" gradientTransform="matrix(-1 0 0 1 5834.8564 0)">
			<stop  offset="0" style="stop-color:#E85B7D"/>
			<stop  offset="1" style="stop-color:#FF78AF"/>
		</linearGradient>
		<path class="st86" d="M128.01,136.01c0.18,0.09,0.43,0.16,0.78,0.16C128.55,136.15,128.29,136.11,128.01,136.01z"/>
		<path class="st31" d="M124.53,132.88c0,0,0.1,5,3.97,5.63c-0.52-0.9-0.76-2.24-0.82-2.64
			C126.82,135.47,125.76,134.6,124.53,132.88z"/>
	</g>
	<g>
		<path class="st87" d="M397.28,46.73h-43.52c-2.23,0-4.04,1.81-4.04,4.04v31.13c0,1.53,0.85,2.86,2.11,3.55l-4.07,11.56
			c-0.37,1.06,0.89,1.94,1.75,1.22l14.78-12.29h32.99c2.23,0,4.04-1.81,4.04-4.04V50.78C401.32,48.54,399.51,46.73,397.28,46.73z"/>
		<g>
			<path class="st88" d="M387.99,66.33c0.01,3.82-1.7,7.24-4.4,9.53c-2.17,1.84-4.97,2.95-8.04,2.96c-3.03,0-5.8-1.07-7.96-2.86
				c-2.76-2.28-4.51-5.73-4.52-9.59c-0.01-6.88,5.56-12.47,12.45-12.48C382.39,53.87,387.98,59.44,387.99,66.33z"/>
			<path class="st21" d="M383.58,75.85c-2.17,1.84-4.97,2.95-8.04,2.96c-3.03,0-5.8-1.07-7.96-2.86c0.23-2.35,0.87-4.49,1.8-6.22
				c0.61-1.15,2.01-1.61,3.19-1.06c0.9,0.42,1.9,0.65,2.96,0.65c1.08,0,2.1-0.25,3.02-0.69c1.17-0.56,2.58-0.11,3.2,1.03
				C382.69,71.39,383.34,73.51,383.58,75.85z"/>
			<path class="st21" d="M380.69,62.31c0,2.86-2.31,5.18-5.17,5.19c-2.86,0-5.18-2.31-5.19-5.17c0-2.86,2.31-5.18,5.17-5.19
				C378.37,57.14,380.69,59.45,380.69,62.31z"/>
		</g>
	</g>
	<g>
		<path class="st87" d="M51.6,81.95V50.82c0-2.23-1.81-4.04-4.04-4.04H4.04C1.81,46.78,0,48.59,0,50.82v31.13
			c0,2.23,1.81,4.04,4.04,4.04h31.77l13.37,14.19c0.52,0.55,1.43,0.08,1.28-0.66l-2.73-13.53C49.88,85.9,51.6,84.13,51.6,81.95z"/>
		<g>
			
				<ellipse transform="matrix(0.8198 -0.5727 0.5727 0.8198 -33.4019 26.7934)" class="st88" cx="25.87" cy="66.47" rx="12.32" ry="12.32"/>
			<path class="st21" d="M28.12,61.47c0,0,1.1-3.41,2.01-3.54c0.91-0.12,4.36,2.19,3.78,5.94c-0.58,3.75-5.76,9.17-9.78,9.51
				c-4.02,0.34-6.71-2.16-6.34-3.02c0.37-0.85,2.01-2.96,3.47-2.22c1.46,0.73,2.71,2.26,4.39,0.94c1.68-1.31,4.48-3.66,4.66-4.94
				C30.5,62.87,28.12,62.81,28.12,61.47z"/>
		</g>
	</g>
	<g>
		<path class="st87" d="M123.01,40.07H79.49c-2.23,0-4.04,1.81-4.04,4.04v31.13c0,2.23,1.81,4.04,4.04,4.04h20.76l9.56,17.05
			c0.37,0.67,1.4,0.37,1.35-0.4l-1.09-16.65h12.94c2.23,0,4.04-1.81,4.04-4.04V44.11C127.05,41.88,125.25,40.07,123.01,40.07z"/>
		<path class="st21" d="M111.52,54.77v11.2c0,0.7-0.57,1.27-1.27,1.27H92.26c-0.7,0-1.27-0.57-1.27-1.27v-11.2
			c0-0.08,0.01-0.17,0.02-0.24l9.16,5.16c0.67,0.38,1.49,0.38,2.17,0l9.15-5.16C111.52,54.61,111.52,54.69,111.52,54.77z"/>
		<path class="st21" d="M111.49,52.84L102.34,58c-0.67,0.38-1.49,0.38-2.17,0l-9.16-5.16c0.01-0.02,0.01-0.04,0.01-0.06
			c0.07-0.26,0.21-0.5,0.42-0.67c0.19-0.17,0.43-0.27,0.7-0.29c0.04-0.01,0.08-0.01,0.12-0.01h17.99
			C110.87,51.82,111.38,52.26,111.49,52.84z"/>
		<path class="st89" d="M87.68,51.95c-0.01,0.02-0.01,0.05-0.02,0.08l-0.03-0.02C87.65,51.99,87.66,51.97,87.68,51.95z"/>
	</g>
</g>
</svg>
